# xmcd
#
# Track frame offsets:
#	150
#	20789
#	41428
#	60974
#	78949
#	106067
#	130350
#	133534
#	149287
#	172476
#	198131
#	216674
#	226949
#
# Disc length: 3208 seconds
#
# Revision: 1
# Processed by: cddbd v1.5.1PL0 Copyright (c) Steve Scherf et al.
# Submitted via: EasyCDDAExtractor 6.0.0.1
#
DISCID=b80c860d
DTITLE=Megadeth - The System Has Failed
DYEAR=2004
DGENRE=Metal
TTITLE0=Blackmail The Universe
TTITLE1=Blackmail The Universe
TTITLE2=Die Dead Enough
TTITLE3=Kick The Chair
TTITLE4=The Scorpion
TTITLE5=Tears In A Vial
TTITLE6=I Know Jack
TTITLE7=Back In The Day
TTITLE8=Something I'm Not
TTITLE9=Truth Be Told
TTITLE10=Of Nice And Men
TTITLE11=Shadow Of Deth
TTITLE12=My Kingdom Come
EXTD=
EXTT0=
EXTT1=
EXTT2=
EXTT3=
EXTT4=
EXTT5=
EXTT6=
EXTT7=
EXTT8=
EXTT9=
EXTT10=
EXTT11=
EXTT12=
PLAYORDER=
